<svg id="Layer_3" data-name="Layer 3" xmlns="http://www.w3.org/2000/svg" viewBox="0 0 4000 4000"><defs><style>.cls-1{fill:#fff;}.cls-2{fill:#3c3c3b;}</style></defs><title>Hackernoon - Square Logos</title><polyline class="cls-1" points="860.02 1002.52 1430.01 1002.52 1430.01 717.52 2284.99 717.52 2284.99 1002.52 2854.99 1002.52 2854.99 1572.51 3139.98 1572.51 3139.98 2427.49 2854.99 2427.49 2854.99 2997.48 2284.99 2997.48 2284.99 3282.48 1430.01 3282.48 1430.01 2997.48 860.02 2997.48 860.02 2427.49 575.02 2427.49 575.02 1572.51 860.02 1572.51 860.02 1002.52"/><polygon class="cls-2" points="2854.99 -128.38 2854.99 432.52 2854.99 717.52 2854.99 1002.52 2569.99 1002.52 2284.99 1002.52 2284.99 717.52 2000 717.52 2000 1002.52 2000 1287.51 2000 1572.51 2000 1857.5 2000 2142.5 1715.01 2142.5 1715.01 1857.5 1715.01 1572.51 1715.01 1287.51 1715.01 1002.52 1715.01 717.52 1430.01 717.52 1430.01 1002.52 1145.02 1002.52 860.02 1002.52 860.02 717.52 860.02 432.52 860.02 -128.38 2854.99 -128.38"/><polygon class="cls-2" points="860.02 1287.51 860.02 1002.52 575.02 1002.52 575.02 1287.51 575.02 1572.51 860.02 1572.51 860.02 1287.51"/><polygon class="cls-2" points="575.02 1857.5 575.02 1572.51 290.03 1572.51 290.03 1857.5 290.03 2142.5 290.03 2427.49 575.02 2427.49 575.02 2142.5 575.02 1857.5"/><polygon class="cls-2" points="2854.99 1572.51 3139.98 1572.51 3139.98 1287.51 3139.98 1002.52 2854.99 1002.52 2854.99 1287.51 2854.99 1572.51"/><polygon class="cls-2" points="3424.97 1857.5 3424.97 1572.51 3139.98 1572.51 3139.98 1857.5 3139.98 2142.5 3139.98 2427.49 3424.97 2427.49 3424.97 2142.5 3709.97 2142.5 3709.97 1857.5 3424.97 1857.5"/><polygon class="cls-2" points="860.02 2427.49 575.02 2427.49 575.02 2712.49 575.02 2997.48 860.02 2997.48 860.02 2712.49 860.02 2427.49"/><polygon class="cls-2" points="2854.99 2712.49 2854.99 2997.48 3139.98 2997.48 3139.98 2712.49 3139.98 2427.49 2854.99 2427.49 2854.99 2712.49"/><polygon class="cls-2" points="860.02 4233 860.02 3567.47 860.02 3282.48 860.02 2997.48 1145.02 2997.48 1430.01 2997.48 1430.01 3282.48 1715.01 3282.48 2000 3282.48 2284.99 3282.48 2284.99 2997.48 2569.99 2997.48 2854.99 2997.48 2854.99 3282.48 2854.99 3567.47 2854.99 4233 860.02 4233"/></svg>